name analog
datacolumns 19
datarows 23
range 0.4845 0.4955
endheader
time	ground_force_vx	ground_force_vy	ground_force_vz	ground_force_px	ground_force_py	ground_force_pz	l_ground_force_vx	l_ground_force_vy	l_ground_force_vz	l_ground_force_px	l_ground_force_py	l_ground_force_pz	ground_torque_x	ground_torque_y	ground_torque_z	l_ground_torque_x	l_ground_torque_y	l_ground_torque_z
0.4845	-0.0	-0.0	-0.0	4.078125	25.6695556640625	-683.0881958007812	-1.7813469171524048	-3.5964818000793457	-47.009727478027344	-0.0	-0.0	-0.0	-0.0	-0.0	-0.0	13279.9248046875	2510.239990234375	-970.4108276367188
0.485	-0.0	-0.0	-0.0	3.5207979679107666	25.96866607666016	-681.4097290039062	-1.7014399766921997	-4.028940200805664	-48.40663909912109	-0.0	-0.0	-0.0	-0.0	-0.0	-0.0	14433.904296875	2604.584716796875	-848.8121337890625
0.4855	-0.0	-0.0	-0.0	3.237447738647461	26.723299026489254	-677.0458984375	-1.5332084894180298	-5.185964584350586	-52.12247848510742	-0.0	-0.0	-0.0	-0.0	-0.0	-0.0	14817.078125	2820.594482421875	-871.0664672851562
0.486	-0.0	-0.0	-0.0	3.195769786834717	26.2517204284668	-675.9461059570312	-2.017970561981201	-6.037475109100342	-53.89426803588867	-0.0	-0.0	-0.0	-0.0	-0.0	-0.0	15784.759765625	2916.65283203125	-825.12451171875
0.4865	-0.0	-0.0	-0.0	2.0676114559173584	26.64999008178711	-674.6986083984375	-1.6442874670028689	-6.67765998840332	-56.749488830566406	-0.0	-0.0	-0.0	-0.0	-0.0	-0.0	16331.5224609375	3064.79248046875	-873.7102661132812
0.487	-0.0	-0.0	-0.0	1.757922887802124	26.639442443847656	-671.9768676757812	-2.056140661239624	-7.772308349609375	-59.54224395751953	-0.0	-0.0	-0.0	-0.0	-0.0	-0.0	17120.197265625	3221.2080078125	-996.1712646484376
0.4875	-0.0	-0.0	-0.0	0.8185985088348389	27.153392791748047	-668.4452514648438	-2.3163623809814453	-8.20407772064209	-61.34973907470703	-0.0	-0.0	-0.0	-0.0	-0.0	-0.0	17336.03515625	3446.341796875	-1214.6849365234375
0.488	-0.0	-0.0	-0.0	-0.2206363528966903	27.16912078857422	-666.5556640625	-2.588339805603028	-9.456047058105469	-65.94999694824219	-0.0	-0.0	-0.0	-0.0	-0.0	-0.0	18514.74609375	3548.790283203125	-1298.9425048828125
0.4885	-0.0	-0.0	-0.0	-0.3724682629108429	27.87311744689941	-662.936767578125	-1.638439416885376	-10.661081314086914	-72.58312225341797	-0.0	-0.0	-0.0	-0.0	-0.0	-0.0	20104.517578125	3301.826416015625	-942.6302490234376
0.489	-0.0	-0.0	-0.0	-0.6176456809043884	27.51450538635254	-659.2460327148438	-0.3965684771537781	-12.661187171936035	-77.3474349975586	-0.0	-0.0	-0.0	-0.0	-0.0	-0.0	21212.6953125	2985.04150390625	-488.596923828125
0.4895	-0.0	-0.0	-0.0	-1.0082839727401731	27.394126892089844	-656.2083740234375	0.0468695610761642	-14.734167098999023	-83.75468444824219	-0.0	-0.0	-0.0	-0.0	-0.0	-0.0	23040.296875	3144.67578125	-384.117431640625
0.49	-0.0	-0.0	-0.0	-0.9463526010513306	27.126657485961918	-653.4443969726562	0.0575416646897792	-15.679487228393556	-91.08611297607422	-0.0	-0.0	-0.0	-0.0	-0.0	-0.0	25237.69921875	2750.19287109375	-434.8722229003906
0.4905	-0.0	-0.0	-0.0	-0.0464545860886573	27.01020622253418	-648.8382568359375	-0.1664505898952484	-16.56715202331543	-99.09786224365234	-0.0	-0.0	-0.0	-0.0	-0.0	-0.0	26848.966796875	3116.484619140625	-449.2870178222656
0.491	-0.0	-0.0	-0.0	0.2247878909111023	26.920902252197266	-641.8502807617188	-0.2816512286663055	-17.606916427612305	-105.68810272216795	-0.0	-0.0	-0.0	-0.0	-0.0	-0.0	29175.3359375	2861.70947265625	-475.5798645019531
0.4915	-0.0	-0.0	-0.0	0.953772246837616	27.246383666992188	-636.2601318359375	-0.8561473488807678	-19.07748413085937	-114.47721862792967	-0.0	-0.0	-0.0	-0.0	-0.0	-0.0	30970.759765625	2976.238037109375	-692.9039306640625
0.492	-0.0	-0.0	-0.0	2.482516288757324	26.90507125854492	-630.8281860351562	-1.0954126119613647	-19.711109161376957	-122.4461669921875	-0.0	-0.0	-0.0	-0.0	-0.0	-0.0	33789.49609375	2676.82958984375	-756.3966064453125
0.4925	-0.0	-0.0	-0.0	2.411606788635254	27.43682098388672	-624.995361328125	-1.195692777633667	-19.96070098876953	-130.7647705078125	-0.0	-0.0	-0.0	-0.0	-0.0	-0.0	35605.984375	2622.79736328125	-866.1775512695312
0.493	-0.0	-0.0	-0.0	3.417943000793457	27.200075149536133	-618.2361450195312	-1.107097864151001	-20.25629234313965	-137.0631103515625	-0.0	-0.0	-0.0	-0.0	-0.0	-0.0	37572.78515625	2755.77685546875	-916.4263305664062
0.4935	-0.0	-0.0	-0.0	3.6295320987701416	27.68902587890625	-609.81103515625	-1.3580039739608765	-20.621450424194336	-145.94537353515625	-0.0	-0.0	-0.0	-0.0	-0.0	-0.0	39625.36328125	2686.01220703125	-961.7008056640624
0.494	-0.0	-0.0	-0.0	3.5379178524017334	27.5847110748291	-599.8112182617188	-0.9911342859268188	-20.225666046142575	-153.001220703125	-0.0	-0.0	-0.0	-0.0	-0.0	-0.0	41632.07421875	2756.2373046875	-1192.40380859375
0.4945	-0.0	-0.0	-0.0	3.0919430255889893	27.169572830200195	-593.9200439453125	-1.4040955305099487	-19.54951286315918	-159.51377868652344	-0.0	-0.0	-0.0	-0.0	-0.0	-0.0	43568.28515625	2899.605712890625	-1192.5257568359375
0.495	-0.0	-0.0	-0.0	2.28912615776062	26.517208099365234	-585.091796875	-1.41937255859375	-19.503921508789062	-164.45040893554688	-0.0	-0.0	-0.0	-0.0	-0.0	-0.0	45187.5703125	2629.21484375	-1292.6175537109375
0.4955	-0.0	-0.0	-0.0	1.518247127532959	25.89154815673828	-578.2089233398438	-2.0251364707946777	-19.07493782043457	-170.68533325195312	-0.0	-0.0	-0.0	-0.0	-0.0	-0.0	46729.89453125	2713.66455078125	-1568.30615234375
